<?xml version="1.0" encoding="UTF-8" standalone="no"?>
<svg width="300px" height="337px" viewBox="0 0 300 337" version="1.1" xmlns="http://www.w3.org/2000/svg" xmlns:xlink="http://www.w3.org/1999/xlink" xmlns:sketch="http://www.bohemiancoding.com/sketch/ns">
    <!-- Generator: Sketch 3.2.2 (9983) - http://www.bohemiancoding.com/sketch -->
    <title>Logo + Text 2</title>
    <desc>Created with Sketch.</desc>
    <defs></defs>
    <g id="Page-1" stroke="none" stroke-width="1" fill="none" fill-rule="evenodd" sketch:type="MSPage">
        <g id="Cropped" sketch:type="MSArtboardGroup" fill="#404042">
            <g id="Westage-Logo-+-Text" sketch:type="MSLayerGroup">
                <g id="Westage-Logo" sketch:type="MSShapeGroup">
                    <path d="M299.5,6.16 L299.5,264 L5,264 L299.5,6.16 Z M270,71.28 L270,237.6 L80,237.6 L270,71.28 Z" id="Triangle-1"></path>
                    <path d="M0,0 L295.351562,0 L0,259.71 L0,0 Z M97,0 L248.380859,0 L97,132.046406 L97,0 Z M25,0 L60,0 L60,162.011957 L25,194.433594 L25,0 Z" id="Triangle-3"></path>
                </g>
                <path d="M35.9875,271.59 L35.9875,270.721 L30.1415,270.721 L30.2205,320.175 C30.2205,325.231 24.9275,328.154 19.2395,328.154 C15.0525,328.154 10.8655,326.653 8.6535,324.441 C7.4685,323.177 6.8365,321.755 6.8365,320.175 L6.8365,270.8 L0.9905,270.8 L0.9905,320.175 C0.9905,323.335 2.2545,326.258 4.5455,328.549 C7.9425,331.946 13.6305,334 19.2395,333.921 C25.1645,333.921 30.2995,331.63 33.2225,327.917 C33.4595,328.154 33.6175,328.312 33.7755,328.549 C37.1725,331.946 42.8605,333.921 48.4695,333.921 C57.8705,333.921 65.2965,328.154 65.2965,320.175 L65.2175,270.721 L59.4505,270.721 L59.4505,320.175 C59.4505,325.231 54.1575,328.154 48.4695,328.154 C44.2825,328.154 40.1745,326.653 37.9625,324.441 C36.6985,323.177 36.0665,321.755 36.0665,320.175 C36.0665,320.175 35.9875,277.12 35.9875,273.96 L35.9875,271.59 Z M103.1375,333.842 L103.1375,328.075 L83.7825,328.075 C82.2025,328.075 80.5435,328.075 79.2005,327.996 C78.1735,327.917 77.3045,327.838 76.9885,327.522 C76.7515,327.285 76.7515,326.495 76.6725,325.468 C76.5935,324.204 76.5935,322.545 76.5935,320.649 L76.5935,303.506 L103.1375,303.506 L103.1375,297.66 L76.5935,297.66 L76.5935,284.151 C76.5935,279.569 79.2795,276.725 83.7825,276.725 L103.1375,276.725 L103.1375,270.958 L83.7825,270.958 C76.1195,270.958 70.9055,276.33 70.9055,284.151 L70.9055,320.728 C70.9055,323.572 70.9055,325.705 71.1425,327.364 C71.3795,329.102 71.8535,330.445 72.9595,331.551 C74.0655,332.815 75.5665,333.368 77.3045,333.605 C78.9635,333.842 81.0965,333.842 83.7825,333.842 L103.1375,333.842 Z M128.8915,334 C137.8975,334 145.2445,327.838 145.2445,319.78 L145.2445,310.932 C145.2445,307.219 143.9015,303.901 141.4525,301.531 C138.2925,298.371 133.3155,297.186 128.0225,297.028 C123.7565,296.87 119.0165,296.791 117.3575,291.814 C117.2785,291.498 117.1995,291.261 117.1205,290.945 C117.0415,290.708 116.9625,290.392 116.8835,289.997 C116.8045,289.207 116.8045,288.022 116.8045,285.889 C116.8045,279.174 119.7275,276.409 127.7065,276.409 C138.5295,276.409 139.4775,281.07 139.4775,285.099 L145.2445,285.099 C145.2445,277.989 142.0055,270.563 127.7065,270.563 C116.8045,270.563 111.0375,275.698 111.0375,285.889 C111.0375,290.787 111.2745,291.814 111.9855,293.789 C114.6715,301.768 121.6235,302.637 127.3905,302.874 L128.0225,302.874 L128.1015,302.874 C132.0515,302.716 135.5275,303.822 137.5025,305.718 C138.7665,306.982 139.4775,308.72 139.4775,310.932 L139.4775,319.78 C139.4775,323.73 135.6855,328.154 128.8915,328.154 C119.6485,328.154 116.8045,325.784 116.8045,319.069 L111.0375,319.069 C111.0375,333.921 123.9935,334 128.8915,334 L128.8915,334 Z M180.3205,276.804 L180.3205,270.958 L150.4585,270.958 L150.4585,276.804 L162.5455,276.804 L162.5455,334 L168.2335,334 L168.2335,276.804 L180.3205,276.804 Z M214.6855,297.502 L192.2495,297.502 L192.2495,285.178 C192.2495,283.124 192.9605,281.307 194.3825,279.885 C196.3575,277.831 199.5965,276.646 203.2305,276.646 L203.3885,276.646 C207.8915,276.646 214.6855,278.7 214.6855,285.178 L214.6855,297.502 Z M220.3735,334 L220.3735,285.178 C220.3735,275.303 211.3675,270.958 203.3885,270.879 C198.3325,270.8 193.5135,272.617 190.3535,275.777 C187.9045,278.305 186.5615,281.544 186.5615,285.178 L186.5615,334 L192.2495,334 L192.2495,303.269 L214.6855,303.269 L214.6855,334 L220.3735,334 Z M258.4515,320.412 C258.4515,319.464 258.4515,318.516 258.5305,317.568 C258.6095,313.223 258.6095,309.115 257.5035,306.508 C255.5285,302.005 252.2895,299.714 248.7345,298.608 C246.9965,298.055 245.1795,297.739 243.3625,297.66 C241.6245,297.502 239.8865,297.502 237.5955,297.502 L237.5955,303.348 C245.4165,303.348 250.0775,303.822 252.2895,308.878 C252.5265,309.589 252.6845,310.774 252.7635,312.433 C252.8425,314.013 252.8425,315.751 252.7635,317.41 L252.7635,320.412 C252.7635,322.861 251.8945,324.678 250.2355,326.021 C247.6285,328.154 242.7305,329.023 238.1485,327.917 C231.0385,326.258 230.2485,323.098 230.2485,320.412 L230.2485,284.467 C230.2485,279.49 233.8035,276.646 241.7825,276.646 C249.3665,276.646 252.7635,277.989 252.7635,285.257 L258.4515,285.257 C258.4515,270.958 246.8385,270.879 241.7825,270.879 C226.3775,270.879 224.5605,280.359 224.5605,284.467 L224.5605,320.412 C224.5605,327.364 228.7475,331.709 236.8845,333.605 C238.6225,334 240.4395,334.158 242.2565,334.158 C246.6015,334.158 250.8675,332.973 253.7905,330.603 C256.8715,328.075 258.4515,324.599 258.4515,320.412 L258.4515,320.412 Z M298.1095,333.842 L298.1095,328.075 L278.7545,328.075 C277.1745,328.075 275.5155,328.075 274.1725,327.996 C273.1455,327.917 272.2765,327.838 271.9605,327.522 C271.7235,327.285 271.7235,326.495 271.6445,325.468 C271.5655,324.204 271.5655,322.545 271.5655,320.649 L271.5655,303.506 L298.1095,303.506 L298.1095,297.66 L271.5655,297.66 L271.5655,284.151 C271.5655,279.569 274.2515,276.725 278.7545,276.725 L298.1095,276.725 L298.1095,270.958 L278.7545,270.958 C271.0915,270.958 265.8775,276.33 265.8775,284.151 L265.8775,320.728 C265.8775,323.572 265.8775,325.705 266.1145,327.364 C266.3515,329.102 266.8255,330.445 267.9315,331.551 C269.0375,332.815 270.5385,333.368 272.2765,333.605 C273.9355,333.842 276.0685,333.842 278.7545,333.842 L298.1095,333.842 Z" id="WESTAGE" sketch:type="MSShapeGroup"></path>
            </g>
        </g>
    </g>
</svg>